<svg width="1024" height="1024" viewBox="0 0 100 100" xmlns="http://www.w3.org/2000/svg">
  <!-- Background -->
  
  
  <!-- Heart and Ribbon Elements - Centered -->
  <path d="M25 35 Q25 25 32 25 Q40 25 40 35 Q40 25 48 25 Q55 25 55 35 Q55 45 40 52 Q25 45 25 35" fill="#FFFFFF"/>
  
  <!-- Central Circle -->
  <circle cx="40" cy="40" r="8" fill="#FFFFFF"/>
  
  <!-- Ribbon Elements - Flowing from center -->
  <path d="M32 40 Q26 45 25 50 Q26 55 32 60 Q35 55 40 50 Q35 45 32 40" fill="#FFFFFF"/>
  <path d="M48 40 Q54 45 55 50 Q54 55 48 60 Q45 55 40 50 Q45 45 48 40" fill="#FFFFFF"/>
  <path d="M40 34 Q35 30 30 33 Q35 36 40 40 Q45 36 50 33 Q45 30 40 34" fill="#FFFFFF"/>
  
  <!-- Stethoscope - Integrated with text -->
  <path d="M40 34 Q45 32 50 34 Q55 37 55 40 Q55 43 50 45 Q45 47 40 45 Q35 47 30 45 Q25 43 25 40 Q25 37 30 34 Q35 32 40 34" fill="none" stroke="#FFFFFF" stroke-width="2"/>
  
  <!-- Stethoscope Earpieces -->
  <circle cx="55" cy="40" r="3" fill="#FFFFFF"/>
  <circle cx="25" cy="40" r="3" fill="#FFFFFF"/>
  
  <!-- Stethoscope Bell/Diaphragm -->
  <circle cx="58" cy="43" r="2" fill="#FFFFFF"/>
  <circle cx="22" cy="43" r="2" fill="#FFFFFF"/>
  
  <!-- Additional ribbon details -->
  <path d="M40 30 Q38 27 35 30 Q38 33 40 35 Q42 33 45 30 Q42 27 40 30" fill="#FFFFFF"/>
  
  <!-- PHC Text -->
  <path d="M65 35 L65 45 M65 35 L75 35 L75 40 L65 40 L65 45 L75 45" stroke="#FFFFFF" stroke-width="3" stroke-linecap="round" stroke-linejoin="round"/>
  <path d="M65 50 L75 50 M70 50 L70 60" stroke="#FFFFFF" stroke-width="3" stroke-linecap="round" stroke-linejoin="round"/>
  <path d="M65 55 L75 55 M65 55 L75 60 M75 55 L65 60" stroke="#FFFFFF" stroke-width="3" stroke-linecap="round" stroke-linejoin="round"/>
</svg>