<svg width="1024" height="1024" viewBox="0 0 1024 1024" xmlns="http://www.w3.org/2000/svg">
  <!-- Background -->
  <rect x="0" y="0" width="1024" height="1024" fill="#D32F2F"/>
  
  <!-- Heart and Ribbon Elements - Centered and Larger -->
  <path d="M256 358 Q256 256 328 256 Q410 256 410 358 Q410 256 492 256 Q564 256 564 358 Q564 460 410 532 Q256 460 256 358" fill="#FFFFFF"/>
  
  <!-- Central Circle -->
  <circle cx="410" cy="410" r="82" fill="#FFFFFF"/>
  
  <!-- Ribbon Elements - Flowing from center -->
  <path d="M328 410 Q266 460 256 512 Q266 564 328 614 Q358 564 410 512 Q358 460 328 410" fill="#FFFFFF"/>
  <path d="M492 410 Q554 460 564 512 Q554 564 492 614 Q462 564 410 512 Q462 460 492 410" fill="#FFFFFF"/>
  <path d="M410 348 Q358 307 307 338 Q358 369 410 410 Q462 369 512 338 Q462 307 410 348" fill="#FFFFFF"/>
  
  <!-- Stethoscope - Integrated with text -->
  <path d="M410 348 Q461 328 512 348 Q564 378 564 410 Q564 440 512 460 Q461 481 410 460 Q358 481 307 460 Q256 440 256 410 Q256 378 307 348 Q358 328 410 348" fill="none" stroke="#FFFFFF" stroke-width="20"/>
  
  <!-- Stethoscope Earpieces -->
  <circle cx="564" cy="410" r="31" fill="#FFFFFF"/>
  <circle cx="256" cy="410" r="31" fill="#FFFFFF"/>
  
  <!-- Stethoscope Bell/Diaphragm -->
  <circle cx="594" cy="440" r="20" fill="#FFFFFF"/>
  <circle cx="226" cy="440" r="20" fill="#FFFFFF"/>
  
  <!-- Additional ribbon details -->
  <path d="M410 307 Q389 276 358 307 Q389 338 410 358 Q431 338 461 307 Q431 276 410 307" fill="#FFFFFF"/>
  
  <!-- PHC Text - Larger -->
  <path d="M665 358 L665 460 M665 358 L768 358 L768 410 L665 410 L665 460 L768 460" stroke="#FFFFFF" stroke-width="31" stroke-linecap="round" stroke-linejoin="round"/>
  <path d="M665 512 L768 512 M717 512 L717 614" stroke="#FFFFFF" stroke-width="31" stroke-linecap="round" stroke-linejoin="round"/>
  <path d="M665 563 L768 563 M665 563 L768 614 M768 563 L665 614" stroke="#FFFFFF" stroke-width="31" stroke-linecap="round" stroke-linejoin="round"/>
</svg>